<?xml version="1.0" encoding="UTF-8" standalone="no"?>
<svg
   width="128"
   height="128"
   version="1.1"
   id="svg6"
   sodipodi:docname="icon.svg"
   inkscape:version="1.4.3 (0d15f75042, 2025-12-25)"
   xml:space="preserve"
   xmlns:inkscape="http://www.inkscape.org/namespaces/inkscape"
   xmlns:sodipodi="http://sodipodi.sourceforge.net/DTD/sodipodi-0.dtd"
   xmlns="http://www.w3.org/2000/svg"
   xmlns:svg="http://www.w3.org/2000/svg"><defs
     id="defs6" /><sodipodi:namedview
     id="namedview6"
     pagecolor="#505050"
     bordercolor="#ffffff"
     borderopacity="1"
     inkscape:showpageshadow="0"
     inkscape:pageopacity="0"
     inkscape:pagecheckerboard="1"
     inkscape:deskcolor="#505050"
     inkscape:zoom="4.2592136"
     inkscape:cx="70.552931"
     inkscape:cy="62.570236"
     inkscape:window-width="2560"
     inkscape:window-height="1003"
     inkscape:window-x="0"
     inkscape:window-y="0"
     inkscape:window-maximized="1"
     inkscape:current-layer="svg6" /><g
     id="g285"
     transform="matrix(1.2056963,0,0,1.2056963,-13.729887,-11.572008)"><g
       id="g1"
       transform="matrix(0.31061146,-0.09021803,0.09021803,0.31061146,38.834153,49.709226)"
       style="display:inline"><path
         style="fill:#000000;stroke:#ffffff;stroke-width:1.11288;stroke-dasharray:none;stroke-opacity:1"
         d="m 59.385428,85.329536 c -3.245288,-0.406541 -6.102063,-1.79278 -8.52822,-4.138279 -1.438933,-1.391104 -1.438933,-1.391104 -2.83902,-1.391104 -12.048223,0 -23.723951,-10.512275 -25.527087,-22.983395 C 22.216163,54.915199 22.216163,54.915199 20.755222,54.561287 5.0055121,50.745945 6.8460087,27.651517 23.055856,25.693131 25.475727,25.400772 25.074823,25.805382 25.62637,23.098896 29.787694,2.6789302 54.113078,-5.9478454 69.996488,7.3634387 71.67106,8.7668302 71.67106,8.7668302 73.33023,7.9333118 79.115197,5.0271123 85.810419,6.1327824 90.411033,10.754102 c 4.335845,4.355351 5.331098,9.406352 3.210912,16.295633 -0.249027,0.80918 2.761927,2.05412 3.424307,1.41585 1.803104,-1.737494 5.734828,-2.353551 8.090028,-1.267625 4.80557,2.215733 5.96124,8.741512 2.19869,12.415538 -0.83221,0.812634 -0.83221,0.812634 -0.061,2.860528 7.59814,20.175546 -10.494477,41.015274 -31.480284,36.260139 -1.815371,-0.41134 -1.815371,-0.41134 -2.782195,0.91782 -2.958844,4.067732 -8.395113,6.332851 -13.626089,5.677551 z m 5.289905,-0.849065 c 4.726222,-1.208762 10.098504,-5.921151 7.750862,-6.798808 -1.550967,-0.579814 -4.393634,-2.016467 -5.510738,-2.785052 -0.978494,-0.673225 -0.978494,-0.673225 -2.294479,0.225064 -1.342023,0.91606 -5.036138,2.742517 -6.042106,2.987364 -0.642146,0.156292 -0.875178,0.278434 2.337044,-1.224944 2.07363,-0.970507 4.628148,-2.577426 4.523746,-2.845667 -0.03973,-0.102073 -0.73424,-0.744808 -1.543361,-1.428292 -0.80912,-0.683484 -1.878956,-1.729802 -2.377412,-2.325155 -0.906286,-1.082456 -0.906286,-1.082456 -3.648112,-1.341856 -3.165878,-0.299513 -5.443979,-0.837519 -8.154164,-1.925711 -2.206968,-0.886139 -2.128835,-0.92706 -2.506633,1.312783 -0.651924,3.865038 1.287796,11.024809 2.986833,11.024809 0.273957,0 0.37423,0.111362 0.292367,0.324692 -0.992267,2.585807 9.269033,6.058359 14.186153,4.800773 z M 52.235468,79.359055 c 0.573492,-0.251659 1.001589,-0.273626 1.001589,-0.05141 0,0.09638 -0.325516,0.191321 -0.72337,0.210983 -0.589719,0.02917 -0.641122,-4.48e-4 -0.278219,-0.159592 z m 1.669317,-0.226627 c 0.183625,-0.118663 0.434022,-0.215758 0.556439,-0.215758 0.122416,0 0.07234,0.0971 -0.111288,0.215758 -0.183625,0.118671 -0.434022,0.215758 -0.55644,0.215758 -0.122416,0 -0.07234,-0.09709 0.111289,-0.215758 z m 1.071145,-0.152039 c 0.16067,-0.06429 0.352642,-0.05639 0.426604,0.01752 0.07396,0.07399 -0.0575,0.126567 -0.292131,0.116895 -0.259289,-0.01067 -0.312029,-0.06339 -0.134473,-0.134471 z m 0.890302,-0.222577 c 0.160671,-0.06429 0.352642,-0.05639 0.426604,0.0176 0.07396,0.07399 -0.0575,0.126567 -0.29213,0.116903 -0.25929,-0.01067 -0.312029,-0.06339 -0.134474,-0.134471 z m 0.890302,-0.222578 c 0.160671,-0.06429 0.352642,-0.05639 0.426605,0.01752 0.07396,0.07399 -0.0575,0.126567 -0.292131,0.116903 -0.25929,-0.01067 -0.312029,-0.06339 -0.134474,-0.13447 z m 0.783651,-0.21892 c 0.08161,-0.08161 0.215157,-0.08161 0.296769,0 0.08161,0.08161 0.01485,0.148388 -0.148384,0.148388 -0.163221,0 -0.229994,-0.06682 -0.148385,-0.148388 z m -8.309488,0.935135 c 0,-0.05696 -0.303982,-0.582796 -0.675515,-1.168525 -1.72882,-2.72552 -2.467352,-8.254449 -1.499405,-11.22511 0.337091,-1.034544 0.337091,-1.034544 -0.24638,-1.300201 -3.999301,-1.820957 -9.014044,-7.626629 -11.066211,-12.811587 -0.813753,-2.056002 -0.813753,-2.056002 -2.12244,-1.001454 -2.57541,2.075297 -5.601092,3.157508 -8.943296,3.19882 -1.961824,0.0242 -1.961824,0.0242 -1.811223,1.144789 1.488906,11.078224 9.790812,20.183156 20.577504,22.567924 2.872397,0.635043 5.786966,0.934882 5.786966,0.595344 z M 86.224816,78.581051 C 102.96439,75.661912 112.71925,58.653474 106.87574,42.57438 c -0.38929,-1.071145 -0.73566,-1.947532 -0.76973,-1.947532 -0.0341,0 -0.55043,0.221128 -1.14747,0.491406 -6.225834,2.818361 -12.831882,-4.50563 -9.516045,-10.550246 0.695079,-1.267104 0.695079,-1.267104 -0.786413,-2.045613 -1.481493,-0.778493 -1.481493,-0.778493 -2.028192,0.265519 -1.24252,2.372774 -5.149595,5.458797 -8.044752,6.354177 -0.34162,0.10565 -0.33537,0.243397 0.07907,1.742506 2.535696,9.172114 -1.158217,20.077534 -9.000311,26.571376 -1.056889,0.87518 -1.056889,0.87518 -0.47113,2.433209 1.108842,2.949352 0.983979,7.310701 -0.301212,10.52105 -0.309556,0.773254 -0.513075,1.455671 -0.452265,1.516481 0.79788,0.797878 8.509577,1.225963 11.787533,0.654338 z M 74.290441,76.369108 c 1.458754,-3.186337 1.556707,-7.718546 0.235178,-10.881407 -0.455138,-1.089301 -0.808348,-0.913828 -1.701141,0.845121 -0.916145,1.804946 -3.183942,4.643726 -5.024764,6.289895 -1.83705,1.642787 -1.346469,2.224842 3.548678,4.210369 2.330872,0.945427 2.29415,0.95122 2.942049,-0.463978 z m -5.828643,-4.859892 c 1.953663,-1.964537 4.054357,-4.670868 4.473563,-5.763297 0.07925,-0.206518 -0.573664,0.01573 -1.77699,0.604886 -2.995945,1.466817 -6.798587,2.530964 -9.073934,2.539283 -0.581478,0.0024 -1.057233,0.06453 -1.057233,0.138765 0,0.554481 4.37706,4.761762 4.953921,4.761762 0.116547,0 1.23285,-1.026632 2.480673,-2.281399 z M 65.418994,67.797847 C 84.889069,62.981296 91.587422,39.54524 77.515844,25.473658 64.811216,12.769028 43.163972,17.0281 36.424679,33.558297 28.688354,52.534016 45.736977,72.66684 65.418994,67.797847 Z M 29.039068,53.878267 c 4.22028,-1.467665 5.87745,-3.09717 5.416504,-5.32607 -3.657262,-17.684643 11.62544,-33.696391 29.353827,-30.754111 0.979332,0.162541 1.784776,0.282427 1.789872,0.266432 0.0051,-0.01597 0.228592,-0.730207 0.496651,-1.587127 0.681736,-2.179325 1.913148,-4.169228 3.649553,-5.897474 C 71.230038,9.1023267 71.230038,9.1023267 70.165132,8.1850441 53.829988,-5.8857149 28.89582,3.5678403 25.824013,24.996553 c -0.737923,5.147704 0.502354,13.126498 1.772305,11.401356 2.161049,-2.935631 7.234047,-7.087365 10.190292,-8.339712 1.556454,-0.659358 1.329599,-0.48791 -1.35401,1.023324 -6.052657,3.40845 -10.183285,8.372476 -12.351155,14.84314 -1.238293,3.69606 -1.904334,9.983877 -1.114668,10.523129 0.563263,0.384647 4.349776,0.0295 6.072291,-0.569523 z M 22.3649,51.14354 c 0.182022,-4.730082 1.231351,-8.408924 3.517479,-12.33192 0.854954,-1.467103 0.860151,-1.490203 0.539641,-2.398628 -0.624234,-1.769265 -1.048107,-4.382608 -1.193773,-7.360072 -0.177648,-3.631175 -2.246589,-3.986488 -7.464321,-1.281868 -11.5700715,5.99734 -8.3750081,26.139466 4.226662,26.645522 0.166038,0.0065 0.289722,-1.074829 0.374312,-3.273034 z m 82.47653,-10.418098 c 1.15056,-0.460368 1.14806,-0.533809 -0.0863,-2.535893 -2.84322,-4.611566 -7.707483,-9.1434 -8.586737,-7.999922 -4.110496,5.345699 2.270757,13.097498 8.673047,10.535815 z m 3.54096,-3.325941 c 3.04247,-5.893025 -3.36493,-12.53825 -9.294754,-9.639751 -1.161682,0.567828 -2.389893,1.454457 -2.201644,1.589335 3.495128,2.504295 8.878908,8.492826 8.878908,9.876279 0,1.250244 1.6087,0.128074 2.61749,-1.825863 z M 86.066959,33.980556 c 2.544409,-1.212518 4.585483,-3.067983 6.245968,-5.677993 0.533393,-0.838407 -0.954422,-1.717971 -3.806264,-2.250183 -0.240089,-0.04481 -0.436519,-0.09747 -0.436519,-0.117041 0,-0.01956 -0.250396,-0.0757 -0.556445,-0.124791 -0.30604,-0.04905 -0.856912,-0.141788 -1.224162,-0.206037 -0.36725,-0.06429 -0.930229,-0.115322 -1.25106,-0.113473 -0.320832,0.0016 -0.921786,-0.142594 -1.335454,-0.320976 -2.3569,-1.016365 4.718327,0.391043 7.660616,1.523855 1.73078,0.666365 1.794149,0.6039 2.519083,-2.483182 C 96.558269,12.817127 84.593051,3.2549552 73.924943,8.2611896 71.81532,9.251171 71.858556,8.9904185 73.475935,10.969208 c 3.043781,3.723926 5.197309,8.497536 5.912787,13.106543 0.123397,0.794903 0.20949,0.908628 0.628416,0.830095 0.455839,-0.08546 0.458294,-0.07904 0.04028,0.105341 -0.73681,0.324985 -0.949657,0.07122 -1.214185,-1.447848 C 78.303901,20.466258 76.82483,16.62415 75.168033,14.016437 74.093064,12.3245 71.9522,9.6888385 71.652858,9.6888385 c -1.016424,0 -3.868782,3.5673665 -4.859078,6.0771205 -0.922071,2.336839 -0.901458,2.417197 0.74407,2.900658 6.613469,1.943067 13.197028,7.866877 15.789292,14.207039 0.815039,1.993423 0.849918,2.007511 2.73982,1.1069 z m -6.788556,-7.821124 c 0,-0.163218 0.06677,-0.229993 0.148385,-0.14838 0.08161,0.0816 0.08161,0.215155 0,0.296768 -0.08161,0.0816 -0.148385,0.01483 -0.148385,-0.148388 z m -0.222576,-0.667726 c 0,-0.163226 0.06677,-0.229992 0.148384,-0.148388 0.08161,0.08161 0.08161,0.215163 0,0.296768 -0.08161,0.08161 -0.148384,0.01483 -0.148384,-0.14838 z"
         id="path1"
         sodipodi:nodetypes="cssscssssssssscssccssssssssssssssscscccsssssccscccssccccscccsscssscssccssssscsssssssssssssssssssscssssssscssssscssscsscssssccssscsssscssssssccccsssssssssssssssssssssss"
         transform="matrix(2.5200029,0,0,2.5200029,-87.517808,-44.918345)"
         inkscape:label="Contorno" /><g
         id="g7"
         style="display:inline;fill:#2aa9e1;fill-opacity:1"
         transform="translate(-0.97679524,-4.8244303)"
         inkscape:label="Globo"><circle
           style="fill:#49a4e5;fill-opacity:1;stroke-width:0.895748"
           id="circle6"
           cx="64"
           cy="64"
           r="63.252918"
           transform="translate(-0.04822067,4.8233207)" /><path
           id="path6"
           style="display:inline;fill:#f97937;fill-opacity:1;stroke-width:0.895748"
           d="m 40.591441,92.887159 c 0,27.628831 33.107423,35.361871 29.717249,35.361871 -34.933623,0 -64.5763333,-45.160959 -63.2529182,-63.252922 C 8.3791868,46.904145 26.9733,37.802516 39.429313,53.872891 c 21.619841,27.893272 1.162128,11.385443 1.162128,39.014268 z"
           sodipodi:nodetypes="zszsz" /><path
           id="path7"
           style="display:inline;fill:#f97937;fill-opacity:1;stroke-width:0.895748"
           d="M 83.986126,41.476261 C 79.30903,14.246187 45.370357,12.229284 48.711598,11.655385 83.141045,5.7417098 120.00092,45.232867 121.75926,63.287747 123.51762,81.34263 106.73262,93.46057 91.73594,79.730725 65.706266,55.8999 88.663221,68.706332 83.986126,41.476261 Z"
           sodipodi:nodetypes="zszsz" /></g></g><g
       id="g258"
       inkscape:label="Olá Fábrica"
       style="display:inline;fill:#ffffff;fill-opacity:1;stroke:#ffffff;stroke-width:2.7;stroke-dasharray:none;stroke-opacity:1"
       transform="translate(-104.42542,-101.43709)"><path
         style="fill:#ffffff;fill-opacity:1;stroke:#ffffff;stroke-width:2.7;stroke-linejoin:round;stroke-dasharray:none;stroke-dashoffset:0;stroke-opacity:1"
         d="m 156.76099,128.32169 c -0.76161,-0.2689 -1.27495,-0.58983 -1.92635,-1.20433 -1.60338,-1.51255 -2.47997,-4.01814 -2.22098,-6.34828 0.52636,-4.73551 4.14997,-7.42896 7.5853,-5.63819 0.79124,0.41246 1.79166,1.41561 2.28429,2.29055 1.13229,2.01098 1.38812,4.45563 0.69596,6.65042 -0.70061,2.22155 -2.11284,3.77427 -3.92061,4.31063 -0.68638,0.20365 -1.82723,0.17588 -2.49761,-0.0608 z m 2.50067,-1.37149 c 1.36889,-0.52975 2.35725,-1.64257 2.91838,-3.2859 0.22223,-0.65083 0.26134,-0.89736 0.29283,-1.84592 0.0275,-0.82962 0.003,-1.2466 -0.10312,-1.72161 -0.64684,-2.90739 -2.86511,-4.66517 -5.13968,-4.07272 -1.77136,0.46138 -3.02666,1.93362 -3.46756,4.06679 -0.19679,0.9521 -0.17509,2.24912 0.0535,3.19585 0.42771,1.77171 1.70896,3.3111 3.15419,3.78971 0.49593,0.16424 1.71437,0.0971 2.29149,-0.1262 z"
         id="path272" /><path
         style="fill:#ffffff;fill-opacity:1;stroke:#ffffff;stroke-width:2.7;stroke-linejoin:round;stroke-dasharray:none;stroke-dashoffset:0;stroke-opacity:1"
         d="m 168.62912,127.87294 c -0.0713,-0.28039 -0.11127,-1.98388 -0.13834,-5.89721 -0.0371,-5.35817 -0.0335,-5.52441 0.13683,-6.31978 0.0962,-0.44926 0.24278,-1.01731 0.32577,-1.26231 0.13405,-0.39576 0.17908,-0.44829 0.40358,-0.47076 0.21996,-0.022 0.2655,0.0102 0.35165,0.24903 0.16535,0.45831 0.24533,2.72624 0.24533,6.95655 0,4.16605 -0.0789,6.51573 -0.23218,6.9105 -0.0816,0.21022 -0.12434,0.22828 -0.54048,0.22828 h -0.45188 z"
         id="path273" /><path
         style="fill:#ffffff;fill-opacity:1;stroke:#ffffff;stroke-width:2.7;stroke-linejoin:round;stroke-dasharray:none;stroke-dashoffset:0;stroke-opacity:1"
         d="m 177.21175,128.64744 c -1.03606,-0.25131 -1.95717,-0.9402 -2.40514,-1.79878 -0.19542,-0.37453 -0.23468,-0.55252 -0.23643,-1.07169 -0.002,-0.51514 0.0377,-0.70351 0.22824,-1.09159 0.25975,-0.52894 0.5715,-0.79902 1.33436,-1.15601 0.82304,-0.38514 1.58621,-0.51279 2.79329,-0.46719 0.92603,0.035 1.12714,0.0713 1.87017,0.33773 0.7142,0.25611 0.87468,0.28691 1.12893,0.21671 0.51544,-0.14232 0.60808,-0.32296 0.64023,-1.2485 0.0358,-1.03008 -0.10306,-1.48893 -0.62676,-2.07142 -0.6372,-0.70871 -1.39364,-0.99183 -2.65436,-0.99346 -0.85878,-0.001 -1.58588,0.13168 -2.65618,0.48509 -0.40253,0.13291 -0.75715,0.22682 -0.78807,0.20867 -0.0309,-0.0181 -0.10064,-0.16764 -0.15495,-0.33222 -0.12472,-0.37789 -0.12002,-0.38095 0.99974,-0.64887 2.54676,-0.60937 4.39172,-0.70758 5.31258,-0.28282 0.25111,0.11583 0.57173,0.30803 0.71249,0.42712 0.61659,0.52163 1.10793,1.97539 1.26841,3.75294 0.12573,1.39254 0.20206,4.73885 0.11835,5.18807 l -0.0696,0.37354 -0.58871,0.0242 -0.58872,0.0242 -0.0521,-0.26022 c -0.0627,-0.31334 -0.55099,-0.82572 -0.78696,-0.82572 -0.28223,0 -0.27072,-0.12536 0.0388,-0.42265 0.57366,-0.55098 0.78353,-1.35329 0.53,-2.02612 -0.22187,-0.5888 -1.02379,-1.16428 -1.97102,-1.41446 -0.56089,-0.14814 -2.04709,-0.17539 -2.60347,-0.0477 -1.36109,0.31229 -2.17896,1.15832 -2.17586,2.25078 0.002,0.8156 0.63841,1.79 1.41701,2.1706 0.34291,0.16762 0.50512,0.1905 1.26495,0.17841 0.76575,-0.0122 1.68901,-0.14436 2.19974,-0.31491 l 0.16602,-0.0554 -0.16602,0.138 c -0.3068,0.25503 -1.11464,0.62316 -1.63858,0.74669 -0.62036,0.14626 -1.27643,0.14877 -1.86043,0.007 z"
         id="path274" /><path
         style="fill:#ffffff;fill-opacity:1;stroke:#ffffff;stroke-width:2.7;stroke-linejoin:round;stroke-dasharray:none;stroke-dashoffset:0;stroke-opacity:1"
         d="m 179.17509,114.54557 c 0,-0.12339 0.46326,-0.7155 0.74581,-0.95325 0.45687,-0.38443 1.49332,-0.82184 1.27441,-0.53784 -0.0462,0.0599 -0.31228,0.41242 -0.59128,0.78329 -0.279,0.37086 -0.56829,0.69771 -0.64286,0.72632 -0.20053,0.077 -0.78608,0.0632 -0.78608,-0.0185 z"
         id="path275" /><path
         style="fill:#ffffff;fill-opacity:1;stroke:#ffffff;stroke-width:2.7;stroke-linejoin:round;stroke-dasharray:none;stroke-dashoffset:0;stroke-opacity:1"
         d="m 143.62159,215.11995 c -1.04381,-0.28695 -1.92806,-0.97645 -2.34491,-1.82845 -0.41317,-0.84449 -0.2566,-1.99269 0.35944,-2.63599 0.31214,-0.32595 0.8043,-0.59746 1.56366,-0.86261 0.60031,-0.20962 0.75884,-0.22892 1.90009,-0.23136 1.23896,-0.003 1.2496,-0.001 2.14526,0.3192 0.82338,0.29441 0.92774,0.31358 1.2239,0.22485 0.4867,-0.14582 0.61619,-0.44634 0.61133,-1.41878 -0.003,-0.66635 -0.037,-0.86046 -0.21747,-1.25231 -0.76252,-1.65601 -2.80772,-2.09044 -5.62481,-1.19478 -0.38481,0.12234 -0.74849,0.24118 -0.80818,0.26409 -0.10164,0.039 -0.17025,-0.0775 -0.30977,-0.52578 -0.0503,-0.16161 0.001,-0.19201 0.59073,-0.34966 1.7288,-0.46219 2.76888,-0.62396 4.04919,-0.62979 1.32835,-0.006 1.62126,0.0629 2.28948,0.53868 0.65871,0.46904 1.14608,1.64474 1.36621,3.29575 0.14108,1.05811 0.26673,5.34676 0.17152,5.85426 l -0.0578,0.30823 h -0.6188 c -0.61214,0 -0.61881,-0.002 -0.61881,-0.21729 0,-0.33201 -0.56695,-0.86182 -0.92225,-0.86182 h -0.2777 l 0.30952,-0.25514 c 0.76837,-0.63335 0.99604,-1.63562 0.54546,-2.40116 -0.50364,-0.85566 -1.65338,-1.32451 -3.25394,-1.32691 -2.05446,-0.003 -3.36807,0.90209 -3.37122,2.32302 -0.002,0.95052 0.80453,2.02628 1.71861,2.29201 0.53259,0.15483 1.66329,0.11228 2.57963,-0.0971 0.62443,-0.14266 0.6205,-0.14242 0.55401,-0.0348 -0.0893,0.14457 -1.011,0.57468 -1.50988,0.70462 -0.57289,0.14922 -1.49776,0.14878 -2.04248,-9.7e-4 z"
         id="path276" /><path
         style="fill:#ffffff;fill-opacity:1;stroke:#ffffff;stroke-width:2.7;stroke-linejoin:round;stroke-dasharray:none;stroke-dashoffset:0;stroke-opacity:1"
         d="m 128.87133,214.82899 c -0.16151,-0.30177 -0.24391,-2.23242 -0.24446,-5.72713 -5.7e-4,-3.62549 0.0769,-5.22725 0.28775,-5.95268 0.17468,-0.60086 0.53214,-0.98649 1.06466,-1.14851 0.69115,-0.2103 3.0033,-0.30834 5.96317,-0.25285 3.08585,0.0579 3.44634,0.0889 3.51405,0.3022 0.0689,0.21716 -0.0371,0.55615 -0.19551,0.62505 -0.0758,0.033 -1.76268,0.0867 -3.74867,0.11944 -3.71573,0.0612 -3.98428,0.0864 -4.53886,0.4249 -0.47376,0.28919 -0.60777,0.71843 -0.60724,1.94497 5.3e-4,1.23096 0.0728,1.57664 0.3933,1.88244 0.37977,0.3623 0.63896,0.41207 2.51155,0.4823 1.7179,0.0644 2.45803,0.17123 2.9274,0.42243 0.16618,0.0889 0.15922,0.10125 -0.14585,0.25776 -0.41807,0.21448 -1.40877,0.3878 -2.24199,0.39223 -0.98586,0.005 -1.9876,0.14011 -2.40199,0.32342 -0.43588,0.19281 -0.74617,0.62077 -0.87662,1.20907 -0.0499,0.22528 -0.12249,1.3459 -0.1612,2.49027 -0.0387,1.14437 -0.097,2.14604 -0.12961,2.22594 -0.0489,0.11982 -0.16622,0.14526 -0.67,0.14526 -0.52642,0 -0.62307,-0.023 -0.69988,-0.16651 z"
         id="path277" /><path
         style="fill:#ffffff;fill-opacity:1;stroke:#ffffff;stroke-width:2.7;stroke-linejoin:round;stroke-dasharray:none;stroke-dashoffset:0;stroke-opacity:1"
         d="m 145.75576,202.0619 c 0.29064,-0.56202 1.33498,-1.34396 1.79497,-1.34396 0.15292,0 0.12693,0.0619 -0.21793,0.51881 -0.72401,0.95932 -0.84537,1.05837 -1.29674,1.05837 h -0.4009 z"
         id="path278" /><path
         style="fill:#ffffff;fill-opacity:1;stroke:#ffffff;stroke-width:2.7;stroke-linejoin:round;stroke-dasharray:none;stroke-dashoffset:0;stroke-opacity:1"
         d="m 160.20302,215.08878 c -0.50351,-0.1442 -0.85135,-0.31865 -1.68986,-0.84754 -0.76705,-0.48382 -1.4723,-0.32448 -1.65316,0.37349 -0.0666,0.25699 -0.24833,0.35566 -0.68603,0.3725 -0.42888,0.0165 -0.43972,-0.14636 -0.41642,-6.25891 0.02,-5.2603 0.085,-7.614 0.21941,-7.95195 0.049,-0.12326 0.14024,-0.14484 0.52626,-0.12452 l 0.46695,0.0246 0.0518,2.13098 c 0.0672,2.76498 0.1292,3.07635 0.66803,3.35499 0.36527,0.18889 0.7132,0.11008 1.46818,-0.33254 0.35187,-0.20628 0.79646,-0.43035 0.98798,-0.49792 2.20022,-0.77628 4.76517,0.85074 5.38786,3.41768 0.1812,0.74694 0.18151,2.13839 6.3e-4,2.8425 -0.67427,2.62485 -3.01513,4.16006 -5.33163,3.49665 z m 1.64652,-0.94466 c 0.96236,-0.44303 1.7874,-1.48118 2.09461,-2.63563 0.15665,-0.58869 0.15577,-1.96793 -0.002,-2.63576 -0.27383,-1.16139 -1.01879,-2.15424 -1.93068,-2.57313 -0.63444,-0.29144 -1.70185,-0.35648 -2.35541,-0.14352 -0.82329,0.26825 -1.63507,0.71279 -1.97492,1.08149 -0.53069,0.57573 -0.62029,1.01291 -0.62029,3.02642 0,2.50847 0.1605,2.88768 1.52555,3.60432 0.90668,0.47601 1.18678,0.54762 2.03585,0.52056 0.60003,-0.0191 0.84154,-0.0673 1.22697,-0.24475 z"
         id="path279" /><path
         style="fill:#ffffff;fill-opacity:1;stroke:#ffffff;stroke-width:2.7;stroke-linejoin:round;stroke-dasharray:none;stroke-dashoffset:0;stroke-opacity:1"
         d="m 170.40695,214.89521 c -0.0784,-0.12691 -0.18172,-3.39799 -0.21371,-6.76873 l -0.0246,-2.59407 0.5188,3e-5 c 0.43806,2e-5 0.51909,0.0226 0.52063,0.14529 0.004,0.29757 0.32731,0.85164 0.59517,1.01912 0.27114,0.16954 0.55637,0.17879 0.93868,0.0305 0.12521,-0.0486 0.0977,0.0139 -0.11195,0.25417 -0.67101,0.76908 -0.83403,1.66586 -0.89091,4.90117 -0.0233,1.324 -0.0616,2.56602 -0.0851,2.76005 l -0.0428,0.35279 h -0.57108 c -0.35679,0 -0.59434,-0.0376 -0.63306,-0.10029 z"
         id="path280" /><path
         style="fill:#ffffff;fill-opacity:1;stroke:#ffffff;stroke-width:2.7;stroke-linejoin:round;stroke-dasharray:none;stroke-dashoffset:0;stroke-opacity:1"
         d="m 173.25443,206.18954 c 0.56827,-0.73204 1.14346,-1.03061 1.98543,-1.03061 0.33034,0 0.62468,0.024 0.65411,0.0533 0.0934,0.0931 -0.17056,0.60089 -0.45778,0.88057 -0.26364,0.25672 -0.30779,0.26978 -0.91217,0.26978 -0.56419,0 -1.03014,0.0899 -1.52505,0.29431 -0.10007,0.0413 -0.007,-0.12994 0.25546,-0.46733 z"
         id="path281" /><path
         style="fill:#ffffff;fill-opacity:1;stroke:#ffffff;stroke-width:2.7;stroke-linejoin:round;stroke-dasharray:none;stroke-dashoffset:0;stroke-opacity:1"
         d="m 179.94451,214.76723 c -0.0833,-0.29796 -0.0833,-8.70853 0,-9.00649 0.0596,-0.21309 0.0937,-0.22827 0.51372,-0.22827 h 0.44988 l 0.0673,0.39429 c 0.087,0.5094 0.0882,8.34789 10e-4,8.75746 l -0.066,0.31128 h -0.4512 c -0.42141,0 -0.45543,-0.0151 -0.51505,-0.22827 z"
         id="path282" /><path
         style="fill:#ffffff;fill-opacity:1;stroke:#ffffff;stroke-width:2.7;stroke-linejoin:round;stroke-dasharray:none;stroke-dashoffset:0;stroke-opacity:1"
         d="m 179.88853,201.75328 c -0.51711,-0.26967 -0.60078,-0.66271 -0.22177,-1.04172 0.2017,-0.2017 0.31025,-0.24244 0.64332,-0.24142 0.49455,0.002 0.78131,0.13938 0.92853,0.44641 0.14555,0.30356 0.0317,0.57116 -0.33938,0.79738 -0.32378,0.19741 -0.68095,0.21131 -1.0107,0.0393 z"
         id="path283" /><path
         style="fill:#ffffff;fill-opacity:1;stroke:#ffffff;stroke-width:2.7;stroke-linejoin:round;stroke-dasharray:none;stroke-dashoffset:0;stroke-opacity:1"
         d="m 189.63424,215.11233 c -0.2511,-0.0667 -0.72942,-0.25015 -1.06293,-0.40766 -1.84652,-0.87207 -3.00452,-2.59624 -3.00452,-4.47349 0,-1.38013 0.49189,-2.55783 1.47472,-3.53086 0.73532,-0.72797 1.45702,-1.14393 2.47196,-1.42472 1.63516,-0.45239 3.66082,-0.0778 4.73038,0.87485 l 0.32943,0.29341 -0.19597,0.16687 c -0.27965,0.23813 -0.70934,0.20972 -1.3397,-0.0886 -0.74455,-0.35235 -1.33485,-0.49161 -2.08392,-0.49161 -2.21684,0 -3.72957,1.6733 -3.72549,4.12093 0.002,1.35028 0.34243,2.27921 1.14138,3.11682 1.31026,1.37368 3.19186,1.50288 5.13721,0.35276 l 0.63938,-0.37801 0.29577,0.29576 c 0.24228,0.24228 0.27943,0.32194 0.20542,0.44045 -0.14786,0.23678 -1.54189,0.9227 -2.23611,1.10025 -0.77643,0.19858 -2.09443,0.21417 -2.77701,0.0328 z"
         id="path284" /><path
         style="fill:#ffffff;fill-opacity:1;stroke:#ffffff;stroke-width:2.7;stroke-linejoin:round;stroke-dasharray:none;stroke-dashoffset:0;stroke-opacity:1"
         d="m 200.94626,215.11678 c -1.60306,-0.43177 -2.75839,-1.69397 -2.66048,-2.90659 0.0987,-1.22208 1.0693,-2.09858 2.812,-2.53927 1.02736,-0.2598 2.41571,-0.19423 3.45858,0.16335 0.42298,0.14503 0.86375,0.2637 0.97947,0.2637 0.31878,0 0.68201,-0.22205 0.82936,-0.507 0.18129,-0.35058 0.18293,-1.33559 0.003,-1.87694 -0.27252,-0.82051 -1.13627,-1.51459 -2.20748,-1.77388 -0.95231,-0.23052 -2.54781,-0.0886 -3.76916,0.33526 -0.26966,0.0936 -0.54417,0.17016 -0.61001,0.17016 -0.1235,0 -0.60138,-0.46326 -0.60138,-0.58298 0,-0.23901 1.71708,-0.56323 3.36187,-0.6348 1.92812,-0.0839 3.59623,0.18095 4.07822,0.6475 0.8382,0.81132 1.4373,3.26834 1.44036,5.90711 0.002,1.4068 -0.13299,2.33117 -0.422,2.89769 -0.1536,0.30109 -0.17959,0.31541 -0.57197,0.31541 h -0.41105 l -0.17376,-0.40393 c -0.20022,-0.46542 -0.45019,-0.63255 -0.91821,-0.61388 l -0.32772,0.0131 0.45246,-0.41352 c 0.53865,-0.49229 0.7966,-0.98056 0.7966,-1.50785 0,-0.48628 -0.0882,-0.71491 -0.42304,-1.09625 -0.58074,-0.66142 -1.8047,-1.0638 -3.22936,-1.06165 -1.21268,0.002 -1.84718,0.20757 -2.44859,0.794 -0.33804,0.32961 -0.47201,0.53544 -0.57342,0.88097 -0.16567,0.56445 -0.16571,0.77473 -2.4e-4,1.33951 0.17108,0.5839 0.87914,1.30772 1.49029,1.52344 0.60402,0.21322 1.70458,0.25978 2.36205,0.0999 0.29676,-0.0721 0.63295,-0.15355 0.74708,-0.1809 0.41549,-0.0996 -0.70966,0.5509 -1.23312,0.71286 -0.62434,0.19318 -1.58805,0.2085 -2.23047,0.0355 z"
         id="path285" /></g></g></svg>
